<?xml version="1.0" encoding="utf-8"?>
<!-- Generator: Adobe Illustrator 15.0.0, SVG Export Plug-In . SVG Version: 6.00 Build 0)  -->
<!DOCTYPE svg PUBLIC "-//W3C//DTD SVG 1.1//EN" "http://www.w3.org/Graphics/SVG/1.1/DTD/svg11.dtd">
<svg version="1.1" id="Vrstva_1" xmlns="http://www.w3.org/2000/svg" xmlns:xlink="http://www.w3.org/1999/xlink" x="0px" y="0px"
	 width="510.361px" height="192.798px" viewBox="0 0 510.361 192.798" enable-background="new 0 0 510.361 192.798"
	 xml:space="preserve">
<g>
	<defs>
		<rect id="SVGID_1_" width="510.361" height="192.798"/>
	</defs>
	<clipPath id="SVGID_2_">
		<use xlink:href="#SVGID_1_"  overflow="visible"/>
	</clipPath>
	<g clip-path="url(#SVGID_2_)">
		<defs>
			<rect id="SVGID_3_" width="510.361" height="192.798"/>
		</defs>
		<clipPath id="SVGID_4_">
			<use xlink:href="#SVGID_3_"  overflow="visible"/>
		</clipPath>
		<g opacity="0.3" clip-path="url(#SVGID_4_)">
			<g>
				<defs>
					<rect id="SVGID_5_" x="82.29" y="84.33" width="23.968" height="11.3"/>
				</defs>
				<clipPath id="SVGID_6_">
					<use xlink:href="#SVGID_5_"  overflow="visible"/>
				</clipPath>
				<path clip-path="url(#SVGID_6_)" fill="#8634FC" d="M95.737,84.33c-1.906,0-3.648,0.298-5.236,0.895
					c-1.588,0.587-2.974,1.405-4.159,2.436c-1.193,1.029-2.146,2.242-2.858,3.628s-1.107,2.84-1.194,4.341h19.957
					c1.431-1.681,2.776-3.438,4.011-5.277c-0.457-0.959-1.05-1.856-1.781-2.692C102.533,85.437,99.626,84.33,95.737,84.33"/>
			</g>
		</g>
		<g opacity="0.3" clip-path="url(#SVGID_4_)">
			<g>
				<defs>
					<rect id="SVGID_7_" x="82.29" y="107.768" width="5.691" height="2.719"/>
				</defs>
				<clipPath id="SVGID_8_">
					<use xlink:href="#SVGID_7_"  overflow="visible"/>
				</clipPath>
				<path clip-path="url(#SVGID_8_)" fill="#8634FC" d="M82.919,110.486c1.736-0.825,3.426-1.731,5.062-2.718H82.29
					C82.385,108.73,82.602,109.631,82.919,110.486"/>
			</g>
		</g>
		<g opacity="0.3" clip-path="url(#SVGID_4_)">
			<g>
				<defs>
					<rect id="SVGID_9_" width="116.081" height="116.081"/>
				</defs>
				<clipPath id="SVGID_10_">
					<use xlink:href="#SVGID_9_"  overflow="visible"/>
				</clipPath>
				<path clip-path="url(#SVGID_10_)" fill="#8634FC" d="M63.617,102.647c0-4.832,0.837-9.221,2.503-13.139
					c1.665-3.927,3.917-7.257,6.776-10.001c2.859-2.734,6.228-4.851,10.117-6.362c3.878-1.502,8.084-2.262,12.609-2.262
					c4.36,0,8.364,0.741,12.012,2.204c2.013,0.808,3.862,1.825,5.56,3.033c1.865-5.692,2.887-11.765,2.887-18.08
					C116.081,25.985,90.096,0,58.041,0C25.986,0,0,25.985,0,58.041s25.986,58.041,58.041,58.041c2.701,0,5.353-0.199,7.956-0.557
					C64.41,111.75,63.617,107.455,63.617,102.647"/>
			</g>
		</g>
		<g opacity="0.8" clip-path="url(#SVGID_4_)">
			<g>
				<defs>
					<rect id="SVGID_11_" x="18.477" y="18.477" width="79.128" height="79.127"/>
				</defs>
				<clipPath id="SVGID_12_">
					<use xlink:href="#SVGID_11_"  overflow="visible"/>
				</clipPath>
				<g clip-path="url(#SVGID_12_)">
					<defs>
						<path id="SVGID_13_" d="M66.12,89.508c1.665-3.926,3.917-7.257,6.776-10c2.858-2.734,6.227-4.851,10.116-6.362
							c3.833-1.484,7.985-2.241,12.448-2.259c1.383-4.029,2.144-8.348,2.144-12.846c0-21.851-17.713-39.564-39.564-39.564
							c-21.85,0-39.563,17.713-39.563,39.564c0,21.85,17.713,39.563,39.563,39.563c2.03,0,4.023-0.154,5.97-0.448
							C64.409,94.439,65.109,91.885,66.12,89.508"/>
					</defs>
					<clipPath id="SVGID_14_">
						<use xlink:href="#SVGID_13_"  overflow="visible"/>
					</clipPath>
					
						<linearGradient id="SVGID_15_" gradientUnits="userSpaceOnUse" x1="0" y1="192.7979" x2="1" y2="192.7979" gradientTransform="matrix(79.1276 0 0 -79.1276 18.4713 15313.6758)">
						<stop  offset="0" style="stop-color:#4CD9F4"/>
						<stop  offset="1" style="stop-color:#8634FC"/>
					</linearGradient>
					<rect x="18.477" y="18.477" clip-path="url(#SVGID_14_)" fill="url(#SVGID_15_)" width="79.127" height="79.127"/>
				</g>
			</g>
		</g>
		<g opacity="0.3" clip-path="url(#SVGID_4_)">
			<g>
				<defs>
					<rect id="SVGID_16_" x="20.815" y="75.934" width="116.081" height="116.046"/>
				</defs>
				<clipPath id="SVGID_17_">
					<use xlink:href="#SVGID_16_"  overflow="visible"/>
				</clipPath>
				<path clip-path="url(#SVGID_17_)" fill="#8634FC" d="M125.182,98.979c0.117,1.34,0.182,2.72,0.182,4.149v2.377
					c0,0.79-0.048,1.55-0.125,2.263H82.29c0.163,1.665,0.655,3.166,1.492,4.514c0.828,1.357,1.906,2.522,3.215,3.514
					s2.772,1.762,4.399,2.319c1.626,0.559,3.311,0.827,5.053,0.827c3.099,0,5.708-0.567,7.855-1.722
					c2.136-1.146,3.888-2.638,5.235-4.457l13.563,8.566c-2.782,4.043-6.449,7.151-11.012,9.337
					c-4.553,2.176-9.846,3.272-15.872,3.272c-4.447,0-8.653-0.693-12.619-2.089c-3.966-1.386-7.431-3.407-10.405-6.064
					c-2.974-2.655-5.313-5.929-7.017-9.817c-1.713-3.879-2.56-8.325-2.56-13.321c0-4.832,0.837-9.221,2.502-13.139
					c1.666-3.927,3.918-7.258,6.777-10.001c1.4-1.339,2.925-2.528,4.572-3.573c-31.411,0.739-56.653,26.416-56.653,58.005
					c0,32.055,25.986,58.041,58.041,58.041c32.055,0,58.04-25.986,58.04-58.041C136.896,120.811,132.532,108.703,125.182,98.979"/>
			</g>
		</g>
		<g opacity="0.3" clip-path="url(#SVGID_4_)">
			<g>
				<defs>
					<rect id="SVGID_18_" x="82.29" y="84.33" width="25.103" height="11.3"/>
				</defs>
				<clipPath id="SVGID_19_">
					<use xlink:href="#SVGID_18_"  overflow="visible"/>
				</clipPath>
				<path clip-path="url(#SVGID_19_)" fill="#8634FC" d="M95.737,84.33c-1.906,0-3.648,0.298-5.236,0.895
					c-1.588,0.587-2.974,1.405-4.159,2.436c-1.193,1.029-2.146,2.242-2.858,3.628s-1.107,2.84-1.194,4.341h25.103
					c0-3.09-0.971-5.746-2.916-7.969C102.533,85.437,99.626,84.33,95.737,84.33"/>
			</g>
		</g>
		<g opacity="0.3" clip-path="url(#SVGID_4_)">
			<g>
				<defs>
					<rect id="SVGID_20_" x="63.617" y="42.109" width="115.9" height="116.081"/>
				</defs>
				<clipPath id="SVGID_21_">
					<use xlink:href="#SVGID_20_"  overflow="visible"/>
				</clipPath>
				<path clip-path="url(#SVGID_21_)" fill="#8634FC" d="M134.509,95.778h45.008c-2.237-30.011-27.277-53.67-57.86-53.67
					c-32.055,0-58.041,25.986-58.041,58.041c0,0.389,0.022,0.772,0.03,1.16c0.141-4.307,0.964-8.25,2.473-11.801
					c1.665-3.927,3.918-7.257,6.777-10.001c2.858-2.733,6.227-4.851,10.116-6.362c3.879-1.502,8.085-2.262,12.609-2.262
					c4.361,0,8.365,0.741,12.013,2.204c3.647,1.463,6.776,3.59,9.394,6.363c2.618,2.782,4.659,6.15,6.131,10.116
					c1.463,3.965,2.204,8.479,2.204,13.562v2.378c0,0.789-0.047,1.55-0.125,2.263H82.29c0.163,1.665,0.655,3.166,1.492,4.514
					c0.828,1.357,1.906,2.522,3.215,3.513c1.309,0.992,2.772,1.763,4.399,2.32c1.626,0.559,3.311,0.828,5.053,0.828
					c3.099,0,5.708-0.568,7.854-1.723c2.137-1.146,3.889-2.638,5.236-4.457l13.563,8.566c-2.782,4.043-6.449,7.152-11.012,9.337
					c-4.553,2.175-9.847,3.272-15.872,3.272c-4.447,0-8.653-0.693-12.619-2.089c-3.966-1.386-7.431-3.407-10.405-6.064
					c-2.975-2.656-5.313-5.929-7.017-9.818c-0.437-0.986-0.815-2.013-1.139-3.073c5.81,25.921,28.945,45.295,56.619,45.295
					c29.498,0,53.839-22.011,57.537-50.502h-44.685V95.778z"/>
			</g>
		</g>
		<g opacity="0.8" clip-path="url(#SVGID_4_)">
			<g>
				<defs>
					<rect id="SVGID_22_" x="82.358" y="84.33" width="25.035" height="11.3"/>
				</defs>
				<clipPath id="SVGID_23_">
					<use xlink:href="#SVGID_22_"  overflow="visible"/>
				</clipPath>
				<g clip-path="url(#SVGID_23_)">
					<defs>
						<path id="SVGID_24_" d="M104.477,87.661c-1.944-2.224-4.852-3.331-8.74-3.331c-1.906,0-3.648,0.299-5.237,0.895
							c-1.587,0.588-2.974,1.405-4.158,2.436c-1.193,1.03-2.146,2.242-2.858,3.628c-0.331,0.644-0.586,1.304-0.781,1.975
							c-0.137,0.782-0.254,1.57-0.345,2.366h25.035C107.393,92.541,106.421,89.884,104.477,87.661"/>
					</defs>
					<clipPath id="SVGID_25_">
						<use xlink:href="#SVGID_24_"  overflow="visible"/>
					</clipPath>
					
						<linearGradient id="SVGID_26_" gradientUnits="userSpaceOnUse" x1="0" y1="192.7979" x2="1" y2="192.7979" gradientTransform="matrix(25.0353 0 0 -25.0353 82.3635 4916.7432)">
						<stop  offset="0" style="stop-color:#4CD9F4"/>
						<stop  offset="1" style="stop-color:#8634FC"/>
					</linearGradient>
					<rect x="82.358" y="84.33" clip-path="url(#SVGID_25_)" fill="url(#SVGID_26_)" width="25.035" height="11.3"/>
				</g>
			</g>
		</g>
		<g opacity="0.8" clip-path="url(#SVGID_4_)">
			<g>
				<defs>
					<rect id="SVGID_27_" x="82.834" y="60.585" width="78.141" height="79.128"/>
				</defs>
				<clipPath id="SVGID_28_">
					<use xlink:href="#SVGID_27_"  overflow="visible"/>
				</clipPath>
				<g clip-path="url(#SVGID_28_)">
					<defs>
						<path id="SVGID_29_" d="M134.509,95.778h26.467c-2.177-19.793-18.946-35.193-39.319-35.193
							c-10.259,0-19.606,3.906-26.636,10.311c0.201-0.003,0.398-0.013,0.601-0.013c4.36,0,8.364,0.742,12.012,2.205
							c3.648,1.463,6.776,3.59,9.394,6.362c2.618,2.782,4.659,6.151,6.132,10.117c1.462,3.965,2.204,8.479,2.204,13.562v2.377
							c0,0.79-0.048,1.55-0.125,2.262H82.834c0.343,1.761,0.807,3.477,1.375,5.145c0.763,1.088,1.688,2.051,2.788,2.884
							c1.309,0.991,2.772,1.761,4.399,2.319c1.626,0.559,3.311,0.827,5.053,0.827c3.099,0,5.708-0.567,7.855-1.723
							c2.136-1.145,3.888-2.637,5.235-4.456l13.563,8.566c-2.782,4.043-6.449,7.151-11.012,9.337
							c-3.38,1.615-7.17,2.633-11.363,3.052c6.072,3.794,13.242,5.994,20.93,5.994c19.272,0,35.317-13.782,38.838-32.025h-25.986
							V95.778z"/>
					</defs>
					<clipPath id="SVGID_30_">
						<use xlink:href="#SVGID_29_"  overflow="visible"/>
					</clipPath>
					
						<linearGradient id="SVGID_31_" gradientUnits="userSpaceOnUse" x1="4.882813e-004" y1="192.7979" x2="1.0005" y2="192.7979" gradientTransform="matrix(78.1414 0 0 -78.1414 82.8133 15165.6572)">
						<stop  offset="0" style="stop-color:#4CD9F4"/>
						<stop  offset="1" style="stop-color:#8634FC"/>
					</linearGradient>
					<rect x="82.834" y="60.585" clip-path="url(#SVGID_30_)" fill="url(#SVGID_31_)" width="78.142" height="79.128"/>
				</g>
			</g>
		</g>
		<g opacity="0.3" clip-path="url(#SVGID_4_)">
			<g>
				<defs>
					<rect id="SVGID_32_" x="82.29" y="84.33" width="25.103" height="11.3"/>
				</defs>
				<clipPath id="SVGID_33_">
					<use xlink:href="#SVGID_32_"  overflow="visible"/>
				</clipPath>
				<path clip-path="url(#SVGID_33_)" fill="#8634FC" d="M95.737,84.33c-1.906,0-3.648,0.298-5.236,0.895
					c-1.588,0.587-2.974,1.405-4.159,2.436c-1.193,1.029-2.146,2.242-2.858,3.628s-1.107,2.84-1.194,4.341h25.103
					c0-3.09-0.971-5.746-2.916-7.969C102.533,85.437,99.626,84.33,95.737,84.33"/>
			</g>
		</g>
		<path clip-path="url(#SVGID_4_)" fill="#2F2557" d="M468.339,167.363c-0.849-1.15-1.954-1.988-3.316-2.52
			c-1.362-0.53-2.694-0.796-3.996-0.796c-1.667,0-3.179,0.305-4.542,0.909c-1.361,0.606-2.534,1.438-3.519,2.498
			c-0.986,1.06-1.742,2.302-2.272,3.723c-0.529,1.425-0.794,2.97-0.794,4.633c0,1.758,0.257,3.362,0.772,4.816
			c0.514,1.453,1.248,2.701,2.203,3.745c0.954,1.044,2.095,1.854,3.429,2.431c1.331,0.575,2.83,0.863,4.495,0.863
			c1.726,0,3.254-0.341,4.586-1.022c1.333-0.681,2.41-1.583,3.226-2.703l4.589,3.226c-1.426,1.786-3.165,3.171-5.224,4.154
			c-2.06,0.983-4.467,1.478-7.223,1.478c-2.512,0-4.822-0.417-6.924-1.25c-2.105-0.832-3.915-1.997-5.43-3.497
			c-1.514-1.498-2.694-3.284-3.541-5.358c-0.85-2.074-1.272-4.368-1.272-6.882c0-2.572,0.448-4.896,1.341-6.971
			c0.893-2.073,2.119-3.838,3.679-5.292c1.559-1.451,3.399-2.572,5.518-3.36c2.119-0.786,4.421-1.179,6.903-1.179
			c1.028,0,2.104,0.096,3.225,0.294c1.121,0.197,2.194,0.5,3.225,0.909c1.028,0.407,1.998,0.915,2.907,1.52
			c0.907,0.607,1.679,1.333,2.316,2.182L468.339,167.363z"/>
		<polygon clip-path="url(#SVGID_4_)" fill="#2F2557" points="485.235,186.803 502.719,164.819 485.507,164.819 485.507,159.825 
			509.532,159.825 509.532,165.002 491.956,186.894 509.805,186.894 509.805,191.979 485.235,191.979 		"/>
		<rect x="188.961" y="71.089" clip-path="url(#SVGID_4_)" fill="#2F2557" width="15.284" height="62.913"/>
		<polygon clip-path="url(#SVGID_4_)" fill="#2F2557" points="270.532,134.002 245.207,92.86 244.941,92.86 245.296,134.002 
			230.546,134.002 230.546,71.089 247.874,71.089 273.108,112.142 273.376,112.142 273.02,71.089 287.771,71.089 287.771,134.002 		
			"/>
		<polygon clip-path="url(#SVGID_4_)" fill="#2F2557" points="329.088,84.063 329.088,97.037 353.438,97.037 353.438,109.565 
			329.088,109.565 329.088,134.001 314.072,134.001 314.072,71.089 355.48,71.089 355.48,84.063 		"/>
		<path clip-path="url(#SVGID_4_)" fill="#2F2557" d="M412.26,134.002l-13.66-24.97h-5.178v24.97h-14.839V71.089h23.993
			c3.02,0,5.967,0.311,8.841,0.934c2.873,0.62,5.449,1.675,7.731,3.155c2.279,1.481,4.1,3.434,5.465,5.863
			c1.359,2.43,2.042,5.452,2.042,9.064c0,4.265-1.155,7.849-3.465,10.752c-2.311,2.902-5.51,4.975-9.597,6.221l16.438,26.924H412.26
			z M411.639,90.371c0-1.48-0.313-2.679-0.938-3.599c-0.625-0.917-1.43-1.628-2.409-2.132c-0.984-0.502-2.085-0.843-3.306-1.022
			c-1.221-0.178-2.397-0.267-3.526-0.267h-8.126v14.662h7.233c1.25,0,2.529-0.103,3.84-0.31c1.31-0.206,2.5-0.577,3.572-1.111
			c1.07-0.533,1.949-1.303,2.633-2.31C411.296,93.276,411.639,91.972,411.639,90.371"/>
		<path clip-path="url(#SVGID_4_)" fill="#2F2557" d="M493.476,134.002l-4.886-12.351h-24.348l-4.62,12.351h-16.528l26.392-62.913
			h14.75l26.125,62.913H493.476z M476.594,87.883l-7.997,21.594h15.816L476.594,87.883z"/>
		<g opacity="0.8" clip-path="url(#SVGID_4_)">
			<g>
				<defs>
					<rect id="SVGID_34_" x="82.29" y="107.768" width="31.563" height="11.176"/>
				</defs>
				<clipPath id="SVGID_35_">
					<use xlink:href="#SVGID_34_"  overflow="visible"/>
				</clipPath>
				<g clip-path="url(#SVGID_35_)">
					<defs>
						<path id="SVGID_36_" d="M86.997,115.796c1.309,0.991,2.772,1.761,4.399,2.319c1.626,0.559,3.311,0.827,5.053,0.827
							c3.099,0,5.708-0.567,7.855-1.723c2.136-1.145,3.888-2.637,5.235-4.456l4.314,2.725c-1.473-2.788-3.269-5.377-5.339-7.721
							H82.29c0.164,1.665,0.655,3.167,1.492,4.515C84.61,113.64,85.688,114.804,86.997,115.796"/>
					</defs>
					<clipPath id="SVGID_37_">
						<use xlink:href="#SVGID_36_"  overflow="visible"/>
					</clipPath>
					
						<linearGradient id="SVGID_38_" gradientUnits="userSpaceOnUse" x1="0" y1="192.7979" x2="1" y2="192.7979" gradientTransform="matrix(31.5626 0 0 -31.5626 82.297 6198.5542)">
						<stop  offset="0" style="stop-color:#4CD9F4"/>
						<stop  offset="1" style="stop-color:#8634FC"/>
					</linearGradient>
					<rect x="82.29" y="107.768" clip-path="url(#SVGID_37_)" fill="url(#SVGID_38_)" width="31.563" height="11.175"/>
				</g>
			</g>
		</g>
		<g opacity="0.8" clip-path="url(#SVGID_4_)">
			<g>
				<defs>
					<rect id="SVGID_39_" x="39.292" y="97.274" width="79.127" height="76.229"/>
				</defs>
				<clipPath id="SVGID_40_">
					<use xlink:href="#SVGID_39_"  overflow="visible"/>
				</clipPath>
				<g clip-path="url(#SVGID_40_)">
					<defs>
						<path id="SVGID_41_" d="M112.09,130.667c-4.552,2.175-9.846,3.272-15.872,3.272c-4.447,0-8.653-0.692-12.619-2.089
							c-3.966-1.386-7.431-3.408-10.405-6.063c-2.974-2.657-5.313-5.93-7.017-9.818c-1.713-3.879-2.56-8.326-2.56-13.321
							c0-1.857,0.126-3.648,0.373-5.374c-14.481,5.878-24.698,20.075-24.698,36.666c0,21.851,17.713,39.564,39.564,39.564
							c21.85,0,39.563-17.714,39.563-39.564c0-2.35-0.216-4.647-0.609-6.885C116.089,128.452,114.189,129.662,112.09,130.667"/>
					</defs>
					<clipPath id="SVGID_42_">
						<use xlink:href="#SVGID_41_"  overflow="visible"/>
					</clipPath>
					
						<linearGradient id="SVGID_43_" gradientUnits="userSpaceOnUse" x1="0" y1="192.7979" x2="1" y2="192.7979" gradientTransform="matrix(79.1276 0 0 -79.1276 39.2838 15390.9883)">
						<stop  offset="0" style="stop-color:#4CD9F4"/>
						<stop  offset="1" style="stop-color:#8634FC"/>
					</linearGradient>
					<rect x="39.292" y="97.273" clip-path="url(#SVGID_42_)" fill="url(#SVGID_43_)" width="79.127" height="76.23"/>
				</g>
			</g>
		</g>
	</g>
</g>
</svg>
